# xmcd CD database file
#
# Track frame offsets:
#	183
#	12165
#	25603
#	37750
#	49875
#	61853
#	74338
#	88163
#	100013
#	112540
#	125370
#	136355
#	150775
#	163745
#	174263
#	187913
#
# Disc length: 2655 seconds
#
# Revision: 0
# Processed by: cddbd v1.4PL0 Copyright (c) Steve Scherf et al.
# Submitted via: Feurio! 1.65 - http://www.feurio.com
#
DISCID=b30a5d10
DTITLE=Little Milton - Who´s Cheating Who?
DYEAR=1900
DGENRE=blues
TTITLE0=We´re Gonna Make It
TTITLE1=Who´s Cheating Who?
TTITLE2=Grits Ain´t Groceries (All Around The World)
TTITLE3=Life Is Like That
TTITLE4=Believe In Me
TTITLE5=You´re Welcome To The Club
TTITLE6=I´m Gonna Move To The Outskirts Of Town
TTITLE7=Losing Hand
TTITLE8=Country Style
TTITLE9=Baby I Love You
TTITLE10=Just A Little Bit
TTITLE11=Blues In The Night
TTITLE12=Stand By Me
TTITLE13=Ain´t No Big Deal On You
TTITLE14=Man Loves Two
TTITLE15=I Play Dirty
EXTD=
EXTT0=
EXTT1=
EXTT2=
EXTT3=
EXTT4=
EXTT5=
EXTT6=
EXTT7=
EXTT8=
EXTT9=
EXTT10=
EXTT11=
EXTT12=
EXTT13=
EXTT14=
EXTT15=
PLAYORDER=
